<svg width="51" height="45" viewBox="0 0 51 45" fill="none" xmlns="http://www.w3.org/2000/svg">
<path d="M31.6501 40.732C31.3442 40.3634 31.002 40.0296 30.709 39.6484C27.6629 35.6856 27.6213 30.0017 30.7093 26.039C33.8258 22.0395 39.4407 20.824 43.966 23.0329C44.3184 23.2049 44.7165 23.3883 45.0245 23.6319C45.3662 23.7869 45.6995 24.0785 45.989 24.3191C54.9892 31.7942 48.1841 46.2328 36.9927 43.68C36.6351 43.5985 35.6736 43.1995 35.4458 43.1893C34.3858 44.301 31.6568 44.8717 30.1969 44.8832C29.8492 44.886 29.0821 44.9969 28.882 44.6018C28.628 44.1004 29.4424 43.8153 29.7327 43.5875C30.79 42.7582 31.2686 42.012 31.6501 40.732ZM30.7562 43.9437C32.276 43.7926 33.5815 43.3569 34.8821 42.5535C35.0626 42.4302 35.2538 42.329 35.4458 42.2253C35.9114 42.3611 36.3605 42.551 36.8275 42.6842C40.7329 43.7968 45.1639 42.2361 47.4514 38.8261C50.8139 33.8135 49.2787 27.618 44.4085 24.3413C43.7041 23.955 42.9931 23.5972 42.2272 23.3497C32.5387 20.2192 25.4147 31.802 31.6195 39.335C31.9229 39.7035 32.3293 40.0379 32.5832 40.4362C32.5569 41.6256 31.9154 42.8301 31.075 43.6416L30.7562 43.9437Z" fill="#A87C64"/>
<path d="M42.0326 33.2466C44.8211 33.0194 45.2642 37.5065 42.5842 38.1585C39.7001 38.3234 39.3473 33.8102 42.0326 33.2466ZM42.3621 37.2341C43.8973 36.9336 43.8044 34.1796 42.2336 34.1741C40.6962 34.4448 40.7605 37.1541 42.3621 37.2341Z" fill="#A87C64"/>
<path d="M36.0621 27.5274C38.7424 27.1818 39.2094 31.8859 36.6419 32.2808C33.7517 32.5904 33.3798 27.932 36.0621 27.5274ZM36.6419 31.4243C37.7578 30.7913 37.7726 28.3433 36.0621 28.447C34.6735 28.9537 34.9989 31.6602 36.6419 31.4243Z" fill="#A87C64"/>
<path d="M42.7989 28.221C44.6244 28.1164 41.9507 30.5349 41.692 30.8282L36.4931 36.7295C36.2288 37.0244 35.9825 37.3688 35.6829 37.6244C35.0813 37.6796 34.8719 37.1715 35.3371 36.6243C35.9834 35.8643 36.6706 35.1384 37.335 34.3944L41.6641 29.4463C42.0197 29.0361 42.3629 28.5429 42.7989 28.221Z" fill="#A87C64"/>
<path d="M44.4086 24.3413C44.1931 23.9263 43.4012 23.9775 43.2793 23.5122C43.3402 23.3766 43.3861 22.8995 43.4601 22.8557C43.7315 23.0491 44.7179 23.6032 45.0245 23.6319C45.3662 23.7868 45.6995 24.0785 45.989 24.319C54.9892 31.7942 48.1841 46.2328 36.9927 43.68C36.6351 43.5984 35.6737 43.1995 35.4458 43.1892C35.234 43.1381 32.4437 45.0967 31.4712 44.6704C30.9331 43.7353 32.212 43.8106 32.8784 43.5888C33.2047 43.4802 34.8058 42.902 34.8821 42.5534C35.0626 42.4302 35.2538 42.329 35.4458 42.2253C35.9114 42.3611 36.3605 42.551 36.8275 42.6841C40.7329 43.7968 45.1639 42.2361 47.4514 38.826C50.8139 33.8135 49.2787 27.618 44.4086 24.3413Z" fill="#A87C64"/>
<path d="M3.01764 21.8428L3.01431 12.6518C2.99887 8.29715 5.09038 8.58666 8.43783 8.58845L40.5791 8.5882C41.4804 8.58833 42.8975 8.42183 43.7259 8.79369C44.8079 9.13051 45.5174 10.2767 45.6232 11.37C45.6844 12.0019 45.6955 19.4569 45.6254 19.6821C45.4993 20.0865 44.8968 20.1917 44.7464 19.7464C44.6278 19.3954 44.6946 18.5476 44.6947 18.1539L44.6976 13.6302C44.699 12.0684 45.0751 10.6036 43.4827 9.6906L43.4339 9.66298C42.3357 9.56324 41.7016 9.51286 40.5341 9.51299L7.67548 9.5126C4.57658 9.51196 3.97196 9.42322 3.97747 13.126L3.97651 34.0461C3.97582 37.6251 4.72028 37.6266 7.734 37.6254L24.68 37.6239C25.2392 37.6235 25.8064 37.5942 26.3643 37.6244C27.1045 38.1933 26.4599 38.5599 25.8195 38.5643L7.97699 38.5583C6.05822 38.5587 3.65744 38.7202 3.12621 36.171C2.97773 35.4586 3.01744 34.7022 3.01718 33.9773L3.01764 22.8254C2.86953 22.821 -0.912942 23.1312 0.207002 21.9952C0.460452 21.738 2.53943 21.8415 3.01764 21.8428Z" fill="#A87C64"/>
<path d="M43.4339 9.66295L43.4654 9.62625C42.8119 9.22255 41.0382 9.6907 40.3011 9.34736C40.0264 9.21948 40.0815 8.9521 39.8562 8.81565L39.855 8.75977C40.3078 8.41285 43.0236 8.82729 43.7259 8.79366C44.8079 9.13048 45.5174 10.2766 45.6232 11.3699C45.6844 12.0019 45.6955 19.4569 45.6254 19.682C45.4993 20.0865 44.8968 20.1916 44.7464 19.7464C44.6278 19.3954 44.6946 18.5475 44.6947 18.1538L44.6976 13.6301C44.699 12.0684 45.075 10.6036 43.4827 9.69057L43.4339 9.66295Z" fill="#A87C64"/>
<path d="M14.344 14.4213C16.9826 14.485 16.5785 17.2747 16.579 19.0444L16.5786 28.4068C16.5783 29.5044 16.8188 30.9577 16.0785 31.88C14.766 33.5157 12.2626 32.8048 12.1202 30.4092C12.0865 29.3071 12.1192 28.1928 12.1194 27.0892L12.1202 20.4606C11.0376 20.9836 10.0889 21.6424 8.93156 20.6379C7.81856 19.6717 8.05406 17.8849 9.22419 17.1007C10.1631 16.4714 13.355 14.497 14.344 14.4213ZM13.0369 27.9476C13.0347 28.6189 12.9593 30.1939 13.08 30.7665C13.2901 31.7632 14.5068 32.1591 15.2396 31.3962C15.8263 30.7853 15.6184 29.5576 15.6187 28.7848L15.6188 19.9307C15.6192 18.5515 16.1767 15.4571 14.344 15.3804C13.7521 15.4392 10.4607 17.405 9.789 17.8495C8.51338 18.6936 9.21771 20.4199 10.4356 20.2073C11.3832 20.0418 13.028 18.0551 13.039 19.6483L13.0369 27.9476Z" fill="#A87C64"/>
<path d="M24.1742 17.3903C26.1524 17.2555 26.8837 18.437 27.4059 20.2473C28.0882 22.6117 28.2872 28.6192 25.1686 29.5237C20.4889 30.5991 20.4401 18.0858 24.1742 17.3903ZM24.9655 28.6361C27.5057 28.2099 27.7031 18.0373 24.4313 18.2817C21.9854 18.8761 22.3641 24.7628 22.8027 26.5181C23.0899 27.6672 23.6414 28.7718 24.9655 28.6361Z" fill="#A87C64"/>
<path d="M24.1742 14.2832C28.0816 14.2152 30.2549 16.3698 31.0291 20.2301C31.0707 20.4382 31.5795 23.5203 30.5636 22.6799C30.2931 22.456 30.313 21.6567 30.2689 21.3016C29.8062 17.5927 27.7286 14.694 23.72 15.2659C19.0636 15.9302 18.6114 21.9849 19.1401 25.7014C19.3722 28.4958 21.2464 31.9889 24.4209 31.8395C24.7774 31.8227 25.409 31.6271 25.703 31.8645C26.2531 32.3089 25.4919 32.6406 25.0535 32.6874C20.3247 33.1922 18.4613 28.8146 18.0648 24.769C17.6187 20.2183 18.8965 14.7678 24.1742 14.2832Z" fill="#A87C64"/>
<path d="M33.1553 2.06899C35.2246 1.98272 31.1068 5.3385 30.9906 5.40218C30.5327 5.38581 30.2081 4.98863 30.5361 4.60693C30.9542 4.12036 32.7115 2.35121 33.1553 2.06899Z" fill="#A87C64"/>
<path d="M15.9328 2.22812C16.5107 2.25284 18.4239 4.37114 18.6398 4.75732C18.7972 5.03903 18.475 5.29107 18.2565 5.4022L18.2442 5.40156C17.7577 5.38071 15.726 3.30812 15.4984 2.6044C15.6277 2.39944 15.7083 2.31996 15.9328 2.22812Z" fill="#A87C64"/>
<path d="M24.6264 0.278381C24.8111 0.305299 25.068 0.393251 25.1247 0.594653C25.2382 0.998212 25.4716 3.86118 24.784 4.07946C23.8281 4.06246 24.1968 1.33126 24.2428 0.540894C24.362 0.432047 24.4875 0.357446 24.6264 0.278381Z" fill="#A87C64"/>
</svg>
